<?xml version="1.0" standalone="no"?>
<!DOCTYPE svg PUBLIC "-//W3C//DTD SVG 20010904//EN"
 "http://www.w3.org/TR/2001/REC-SVG-20010904/DTD/svg10.dtd">
<svg version="1.0" xmlns="http://www.w3.org/2000/svg"
 width="32.000000pt" height="32.000000pt" viewBox="0 0 32.000000 32.000000"
 preserveAspectRatio="xMidYMid meet">

<g transform="translate(0.000000,32.000000) scale(0.100000,-0.100000)"
fill="#000000" stroke="none">
<path d="M0 160 l0 -160 160 0 160 0 0 160 0 160 -160 0 -160 0 0 -160z m200
100 c13 -9 13 -10 0 -9 -8 1 -26 5 -40 9 l-25 8 25 1 c14 0 32 -4 40 -9z m60
6 c0 -2 -8 -10 -17 -17 -16 -13 -17 -12 -4 4 13 16 21 21 21 13z m-130 -10 c0
-2 -7 -7 -16 -10 -8 -3 -12 -2 -9 4 6 10 25 14 25 6z m129 -66 c0 -10 -3 -8
-9 5 -12 27 -12 43 0 25 5 -8 9 -22 9 -30z m-43 15 c4 -8 3 -23 -2 -32 -6 -15
-8 -13 -12 10 -5 37 -42 39 -42 2 0 -14 6 -25 13 -25 7 0 23 -14 36 -30 12
-17 26 -28 32 -25 17 11 9 -2 -13 -21 -13 -10 -18 -13 -12 -6 9 10 4 20 -18
43 -36 35 -52 37 -46 4 3 -13 1 -22 -3 -19 -5 3 -9 27 -9 54 0 42 -3 49 -22
53 -13 2 3 5 35 6 43 1 59 -3 63 -14z m-86 -142 c0 -7 -39 17 -46 28 -3 6 5 3
20 -6 14 -10 26 -19 26 -22z"/>
</g>
</svg>
