<?xml version="1.0" encoding="UTF-8"?>
<!DOCTYPE svg PUBLIC "-//W3C//DTD SVG 1.1//EN" "http://www.w3.org/Graphics/SVG/1.1/DTD/svg11.dtd">
<svg xmlns="http://www.w3.org/2000/svg" version="1.1" width="121px" height="121px" style="shape-rendering:geometricPrecision; text-rendering:geometricPrecision; image-rendering:optimizeQuality; fill-rule:evenodd; clip-rule:evenodd" xmlns:xlink="http://www.w3.org/1999/xlink">
<g><path style="opacity:1" fill="#2a2922" d="M -0.5,-0.5 C 11.5,-0.5 23.5,-0.5 35.5,-0.5C 38.0964,0.925503 40.263,2.9255 42,5.5C 42.6838,6.78387 42.5171,7.95054 41.5,9C 42.5,9.83333 43.5,10.6667 44.5,11.5C 44.0496,14.2024 43.5496,17.2024 43,20.5C 39.6851,21.3168 37.5184,23.3168 36.5,26.5C 31.406,30.2583 27.406,34.925 24.5,40.5C 22.4319,39.6252 20.4319,38.4585 18.5,37C 19.4506,36.2825 19.6172,35.4491 19,34.5C 15.1626,32.005 12.6626,28.505 11.5,24C 10.2341,23.6905 9.06743,23.1905 8,22.5C 7.66667,22.8333 7.33333,23.1667 7,23.5C 5.95627,22.3774 5.28961,21.0441 5,19.5C 3.43446,20.0606 2.10113,19.3939 1,17.5C 0.617425,18.056 0.117425,18.3893 -0.5,18.5C -0.5,12.1667 -0.5,5.83333 -0.5,-0.5 Z"/></g>
<g><path style="opacity:1" fill="#3a382f" d="M 35.5,-0.5 C 63.8333,-0.5 92.1667,-0.5 120.5,-0.5C 120.5,9.83333 120.5,20.1667 120.5,30.5C 119.735,30.9234 118.902,31.2568 118,31.5C 115.02,29.3656 112.02,28.0323 109,27.5C 107.667,28.8333 106.333,28.8333 105,27.5C 104,28.1667 103,28.8333 102,29.5C 100.989,28.6634 99.8221,28.33 98.5,28.5C 98.1667,26.5 97.8333,24.5 97.5,22.5C 97.5,22.1667 97.5,21.8333 97.5,21.5C 99.5401,22.4751 99.8734,21.8084 98.5,19.5C 93.8266,17.4152 90.8266,18.7486 89.5,23.5C 85.9225,25.0585 82.9225,24.2252 80.5,21C 76.8136,20.4412 73.147,19.7745 69.5,19C 66.3035,18.1955 63.3035,18.3622 60.5,19.5C 55.8781,19.1561 51.5448,19.8227 47.5,21.5C 44.279,21.8961 41.6123,23.2295 39.5,25.5C 38.391,25.5569 37.391,25.8902 36.5,26.5C 37.5184,23.3168 39.6851,21.3168 43,20.5C 43.5496,17.2024 44.0496,14.2024 44.5,11.5C 43.5,10.6667 42.5,9.83333 41.5,9C 42.5171,7.95054 42.6838,6.78387 42,5.5C 40.263,2.9255 38.0964,0.925503 35.5,-0.5 Z"/></g>
<g><path style="opacity:1" fill="#222119" d="M 24.5,40.5 C 23.4603,44.0366 22.1269,47.37 20.5,50.5C 18.2136,55.4606 17.047,60.794 17,66.5C 15.6914,68.8912 14.6914,68.8912 14,66.5C 12.8438,67.9928 12.0104,67.8261 11.5,66C 12.3236,63.1333 11.4902,60.6333 9,58.5C 6.56153,59.8663 6.06153,59.3663 7.5,57C 5.67324,53.013 3.00657,52.513 -0.5,55.5C -0.5,43.1667 -0.5,30.8333 -0.5,18.5C 0.117425,18.3893 0.617425,18.056 1,17.5C 2.10113,19.3939 3.43446,20.0606 5,19.5C 5.28961,21.0441 5.95627,22.3774 7,23.5C 7.33333,23.1667 7.66667,22.8333 8,22.5C 9.06743,23.1905 10.2341,23.6905 11.5,24C 12.6626,28.505 15.1626,32.005 19,34.5C 19.6172,35.4491 19.4506,36.2825 18.5,37C 20.4319,38.4585 22.4319,39.6252 24.5,40.5 Z"/></g>
<g><path style="opacity:1" fill="#4e422d" d="M 60.5,19.5 C 63.3035,18.3622 66.3035,18.1955 69.5,19C 73.147,19.7745 76.8136,20.4412 80.5,21C 82.9225,24.2252 85.9225,25.0585 89.5,23.5C 90.8266,18.7486 93.8266,17.4152 98.5,19.5C 99.8734,21.8084 99.5401,22.4751 97.5,21.5C 96.9976,19.9153 95.9976,19.4153 94.5,20C 91.3333,23.1667 88.1667,26.3333 85,29.5C 84.5172,30.448 84.3505,31.448 84.5,32.5C 83.5655,31.4324 83.2322,30.099 83.5,28.5C 82.5,28.5 81.5,28.5 80.5,28.5C 80.8039,27.8501 81.1373,27.1835 81.5,26.5C 75.1046,22.3682 68.1046,20.0349 60.5,19.5 Z"/></g>
<g><path style="opacity:1" fill="#856528" d="M 55.5,22.5 C 62.4138,21.6901 68.7471,23.0234 74.5,26.5C 65.2724,23.0244 55.939,22.6911 46.5,25.5C 49.1461,23.7475 52.1461,22.7475 55.5,22.5 Z"/></g>
<g><path style="opacity:1" fill="#f4e38b" d="M 60.5,19.5 C 68.1046,20.0349 75.1046,22.3682 81.5,26.5C 81.1373,27.1835 80.8039,27.8501 80.5,28.5C 79.1667,28.1667 77.8333,27.8333 76.5,27.5C 75.5084,27.6716 74.8417,27.3382 74.5,26.5C 68.7471,23.0234 62.4138,21.6901 55.5,22.5C 53.0521,21.5269 50.3854,21.1936 47.5,21.5C 51.5448,19.8227 55.8781,19.1561 60.5,19.5 Z"/></g>
<g><path style="opacity:1" fill="#d2ae41" d="M 47.5,21.5 C 50.3854,21.1936 53.0521,21.5269 55.5,22.5C 52.1461,22.7475 49.1461,23.7475 46.5,25.5C 43.5498,26.3084 40.8831,27.6418 38.5,29.5C 37.9569,29.44 37.6236,29.1067 37.5,28.5C 38.1925,27.4822 38.8592,26.4822 39.5,25.5C 41.6123,23.2295 44.279,21.8961 47.5,21.5 Z"/></g>
<g><path style="opacity:1" fill="#d6c581" d="M 97.5,21.5 C 97.5,21.8333 97.5,22.1667 97.5,22.5C 97.1667,22.5 96.8333,22.5 96.5,22.5C 96.1034,21.475 95.4368,21.3083 94.5,22C 90.8926,25.0977 87.8926,28.5977 85.5,32.5C 85.1667,32.5 84.8333,32.5 84.5,32.5C 84.3505,31.448 84.5172,30.448 85,29.5C 88.1667,26.3333 91.3333,23.1667 94.5,20C 95.9976,19.4153 96.9976,19.9153 97.5,21.5 Z"/></g>
<g><path style="opacity:1" fill="#e4cb68" d="M 96.5,22.5 C 94.1667,25.1667 91.8333,27.8333 89.5,30.5C 88.3951,31.6005 87.0618,32.2671 85.5,32.5C 87.8926,28.5977 90.8926,25.0977 94.5,22C 95.4368,21.3083 96.1034,21.475 96.5,22.5 Z"/></g>
<g><path style="opacity:1" fill="#3c3525" d="M 76.5,27.5 C 77.8333,27.8333 79.1667,28.1667 80.5,28.5C 81.5,28.5 82.5,28.5 83.5,28.5C 83.2322,30.099 83.5655,31.4324 84.5,32.5C 84.8333,32.5 85.1667,32.5 85.5,32.5C 87.0618,32.2671 88.3951,31.6005 89.5,30.5C 90.5417,31.7911 91.7083,31.7911 93,30.5C 98.633,39.6617 101.466,49.6617 101.5,60.5C 101.34,62.153 100.674,63.4863 99.5,64.5C 99.7257,59.4376 99.3924,54.4376 98.5,49.5C 97.8895,43.2791 95.3895,37.9458 91,33.5C 90.2917,34.3805 89.4584,35.0472 88.5,35.5C 87.9386,39.3268 87.7719,43.3268 88,47.5C 87.1278,51.1807 85.2945,54.1807 82.5,56.5C 82.5,55.8333 82.1667,55.5 81.5,55.5C 81.5,54.8333 81.5,54.1667 81.5,53.5C 82.3382,53.1583 82.6716,52.4916 82.5,51.5C 84.364,46.1852 83.364,41.3519 79.5,37C 74.9221,36.5369 70.4221,35.7035 66,34.5C 61.6753,34.5715 57.842,35.5715 54.5,37.5C 47.8333,37.5 41.1667,37.5 34.5,37.5C 35.2026,35.2843 36.5359,33.451 38.5,32C 51.2242,25.2466 64.2242,24.7466 77.5,30.5C 78.1667,30.3333 78.8333,30.1667 79.5,30C 78.0577,29.6232 77.0577,28.7899 76.5,27.5 Z"/></g>
<g><path style="opacity:1" fill="#a0721c" d="M 39.5,25.5 C 38.8592,26.4822 38.1925,27.4822 37.5,28.5C 37.6236,29.1067 37.9569,29.44 38.5,29.5C 30.4821,35.861 25.8154,44.1943 24.5,54.5C 23.0223,60.5012 23.3556,66.5012 25.5,72.5C 28.7428,82.4044 35.0761,89.4044 44.5,93.5C 47.3973,94.129 50.064,95.129 52.5,96.5C 54.2608,97.3127 55.9275,98.3127 57.5,99.5C 53.4616,99.0422 49.4616,98.3755 45.5,97.5C 42.4673,96.15 39.4673,94.65 36.5,93C 24.0183,81.7445 18.685,67.5779 20.5,50.5C 22.1269,47.37 23.4603,44.0366 24.5,40.5C 27.406,34.925 31.406,30.2583 36.5,26.5C 37.391,25.8902 38.391,25.5569 39.5,25.5 Z"/></g>
<g><path style="opacity:1" fill="#6a5229" d="M 82.5,51.5 C 84.0628,44.4553 81.3961,39.9553 74.5,38C 67.8417,37.5004 61.175,37.3337 54.5,37.5C 57.842,35.5715 61.6753,34.5715 66,34.5C 70.4221,35.7035 74.9221,36.5369 79.5,37C 83.364,41.3519 84.364,46.1852 82.5,51.5 Z"/></g>
<g><path style="opacity:1" fill="#7a5814" d="M 34.5,38.5 C 34.8333,38.5 35.1667,38.5 35.5,38.5C 35.2053,40.7354 35.5386,42.7354 36.5,44.5C 36.44,45.0431 36.1067,45.3764 35.5,45.5C 34.5258,43.2573 34.1924,40.924 34.5,38.5 Z"/></g>
<g><path style="opacity:1" fill="#d5ad2f" d="M 35.5,38.5 C 39.1667,38.5 42.8333,38.5 46.5,38.5C 46.8333,39.1667 47.1667,39.8333 47.5,40.5C 44.9407,40.1984 42.6074,40.5318 40.5,41.5C 38.5956,41.7376 37.2623,42.7376 36.5,44.5C 35.5386,42.7354 35.2053,40.7354 35.5,38.5 Z"/></g>
<g><path style="opacity:1" fill="#f2df83" d="M 34.5,38.5 C 34.5,38.1667 34.5,37.8333 34.5,37.5C 41.1667,37.5 47.8333,37.5 54.5,37.5C 61.175,37.3337 67.8417,37.5004 74.5,38C 81.3961,39.9553 84.0628,44.4553 82.5,51.5C 82.6716,52.4916 82.3382,53.1583 81.5,53.5C 82.3147,49.1672 80.648,46.8338 76.5,46.5C 76.573,44.9731 75.9063,43.9731 74.5,43.5C 73.7777,42.4489 72.7777,41.7822 71.5,41.5C 67.3656,40.5151 63.0323,40.1818 58.5,40.5C 58.5,46.8333 58.5,53.1667 58.5,59.5C 58.1667,59.5 57.8333,59.5 57.5,59.5C 57.8297,53.1318 57.4963,46.7985 56.5,40.5C 53.4439,38.7108 50.1106,38.0441 46.5,38.5C 42.8333,38.5 39.1667,38.5 35.5,38.5C 35.1667,38.5 34.8333,38.5 34.5,38.5 Z"/></g>
<g><path style="opacity:1" fill="#201d12" d="M 74.5,26.5 C 74.8417,27.3382 75.5084,27.6716 76.5,27.5C 77.0577,28.7899 78.0577,29.6232 79.5,30C 78.8333,30.1667 78.1667,30.3333 77.5,30.5C 64.2242,24.7466 51.2242,25.2466 38.5,32C 36.5359,33.451 35.2026,35.2843 34.5,37.5C 34.5,37.8333 34.5,38.1667 34.5,38.5C 34.1924,40.924 34.5258,43.2573 35.5,45.5C 36.1067,45.3764 36.44,45.0431 36.5,44.5C 37.2623,42.7376 38.5956,41.7376 40.5,41.5C 43.8333,41.5 47.1667,41.5 50.5,41.5C 50.5,53.8333 50.5,66.1667 50.5,78.5C 50.1667,78.5 49.8333,78.5 49.5,78.5C 47.9951,67.5765 47.3284,56.5765 47.5,45.5C 42.1059,45.1242 37.1059,46.1242 32.5,48.5C 32.5,48.8333 32.5,49.1667 32.5,49.5C 29.4043,52.7862 28.0709,56.7862 28.5,61.5C 28.6667,63.5 28.8333,65.5 29,67.5C 30.1305,69.6045 31.2972,71.6045 32.5,73.5C 33.8333,75.5 35.5,77.1667 37.5,78.5C 41.9715,88.0692 49.3048,91.7358 59.5,89.5C 61.2303,88.9744 62.5637,87.9744 63.5,86.5C 64.2216,86.9175 64.7216,87.5842 65,88.5C 66.0803,86.4465 66.9136,84.2798 67.5,82C 65.5214,77.3903 64.3547,72.557 64,67.5C 62.6439,66.6198 61.1439,66.2865 59.5,66.5C 59.5,65.5 59.5,64.5 59.5,63.5C 61.6208,63.3253 63.6208,63.6586 65.5,64.5C 68.2583,67.678 70.2583,71.3447 71.5,75.5C 72.5,78.5 74.5,80.5 77.5,81.5C 79.9686,82.3171 82.6353,82.8171 85.5,83C 85.0426,83.414 84.7093,83.914 84.5,84.5C 73.3707,92.1242 61.0373,94.6242 47.5,92C 44.4359,89.134 40.7693,87.3007 36.5,86.5C 32.0351,82.6925 28.7018,78.0258 26.5,72.5C 24.8439,66.6354 24.1773,60.6354 24.5,54.5C 25.8154,44.1943 30.4821,35.861 38.5,29.5C 40.8831,27.6418 43.5498,26.3084 46.5,25.5C 55.939,22.6911 65.2724,23.0244 74.5,26.5 Z"/></g>
<g><path style="opacity:1" fill="#ead370" d="M 98.5,49.5 C 97.8423,48.6016 97.1757,47.6016 96.5,46.5C 95.7025,46.9569 95.3691,47.6236 95.5,48.5C 93.9802,43.7977 91.6468,39.4643 88.5,35.5C 89.4584,35.0472 90.2917,34.3805 91,33.5C 95.3895,37.9458 97.8895,43.2791 98.5,49.5 Z"/></g>
<g><path style="opacity:1" fill="#302f25" d="M 96.5,22.5 C 96.8333,22.5 97.1667,22.5 97.5,22.5C 97.8333,24.5 98.1667,26.5 98.5,28.5C 99.8221,28.33 100.989,28.6634 102,29.5C 103,28.8333 104,28.1667 105,27.5C 106.333,28.8333 107.667,28.8333 109,27.5C 112.02,28.0323 115.02,29.3656 118,31.5C 118.902,31.2568 119.735,30.9234 120.5,30.5C 120.5,38.8333 120.5,47.1667 120.5,55.5C 119.255,54.3982 117.922,53.3982 116.5,52.5C 113.317,53.2438 110.317,53.2438 107.5,52.5C 106.186,53.3128 105.019,54.3128 104,55.5C 103.901,57.6526 103.067,59.3192 101.5,60.5C 101.466,49.6617 98.633,39.6617 93,30.5C 91.7083,31.7911 90.5417,31.7911 89.5,30.5C 91.8333,27.8333 94.1667,25.1667 96.5,22.5 Z"/></g>
<g><path style="opacity:1" fill="#352b16" d="M 71.5,41.5 C 72.7777,41.7822 73.7777,42.4489 74.5,43.5C 75.1495,45.4352 75.4828,47.4352 75.5,49.5C 71.2046,49.7213 70.5379,48.3879 73.5,45.5C 71.2933,44.3652 68.9599,43.6985 66.5,43.5C 66.5,44.8333 66.5,46.1667 66.5,47.5C 65.5178,46.8592 64.5178,46.1925 63.5,45.5C 62.3347,46.8595 62.668,47.8595 64.5,48.5C 63.0813,49.4511 61.4147,49.7845 59.5,49.5C 59.5,46.8333 59.5,44.1667 59.5,41.5C 63.5,41.5 67.5,41.5 71.5,41.5 Z"/></g>
<g><path style="opacity:1" fill="#e8c63f" d="M 46.5,38.5 C 50.1106,38.0441 53.4439,38.7108 56.5,40.5C 57.4963,46.7985 57.8297,53.1318 57.5,59.5C 55.937,57.3832 54.6036,55.0499 53.5,52.5C 52.8165,52.8627 52.1499,53.1961 51.5,53.5C 51.5,49.1667 51.5,44.8333 51.5,40.5C 50.1667,40.5 48.8333,40.5 47.5,40.5C 47.1667,39.8333 46.8333,39.1667 46.5,38.5 Z"/></g>
<g><path style="opacity:1" fill="#baac66" d="M 32.5,48.5 C 34.5869,49.5846 35.9202,51.2512 36.5,53.5C 35.5,52.8333 34.5,52.1667 33.5,51.5C 33.1667,50.8333 32.8333,50.1667 32.5,49.5C 32.5,49.1667 32.5,48.8333 32.5,48.5 Z"/></g>
<g><path style="opacity:1" fill="#9a8036" d="M 76.5,47.5 C 77.9171,50.3404 77.5838,53.007 75.5,55.5C 75.5,54.1667 75.5,52.8333 75.5,51.5C 70.5,50.9969 70.8333,50.6636 76.5,50.5C 76.5,49.5 76.5,48.5 76.5,47.5 Z"/></g>
<g><path style="opacity:1" fill="#584218" d="M 71.5,41.5 C 67.5,41.5 63.5,41.5 59.5,41.5C 59.5,44.1667 59.5,46.8333 59.5,49.5C 61.4147,49.7845 63.0813,49.4511 64.5,48.5C 65.4916,48.6716 66.1583,48.3382 66.5,47.5C 66.5,46.1667 66.5,44.8333 66.5,43.5C 68.9599,43.6985 71.2933,44.3652 73.5,45.5C 70.5379,48.3879 71.2046,49.7213 75.5,49.5C 75.4828,47.4352 75.1495,45.4352 74.5,43.5C 75.9063,43.9731 76.573,44.9731 76.5,46.5C 76.5,46.8333 76.5,47.1667 76.5,47.5C 76.5,48.5 76.5,49.5 76.5,50.5C 70.8333,50.6636 70.5,50.9969 75.5,51.5C 75.5,52.8333 75.5,54.1667 75.5,55.5C 74.36,56.8014 73.0267,57.9681 71.5,59C 67.1794,59.499 62.8461,59.6657 58.5,59.5C 58.5,53.1667 58.5,46.8333 58.5,40.5C 63.0323,40.1818 67.3656,40.5151 71.5,41.5 Z"/></g>
<g><path style="opacity:1" fill="#b59539" d="M 66.5,52.5 C 66.4148,51.0047 67.0815,50.0047 68.5,49.5C 69.6394,51.3957 68.9728,52.3957 66.5,52.5 Z"/></g>
<g><path style="opacity:1" fill="#b0933f" d="M 66.5,47.5 C 66.1583,48.3382 65.4916,48.6716 64.5,48.5C 62.668,47.8595 62.3347,46.8595 63.5,45.5C 64.5178,46.1925 65.5178,46.8592 66.5,47.5 Z"/></g>
<g><path style="opacity:1" fill="#1c1b13" d="M 20.5,50.5 C 18.685,67.5779 24.0183,81.7445 36.5,93C 39.4673,94.65 42.4673,96.15 45.5,97.5C 47.1484,98.9265 49.1484,99.7599 51.5,100C 56.3522,100.815 61.0189,100.648 65.5,99.5C 72.7087,98.2078 79.3754,95.5411 85.5,91.5C 84.4019,92.397 84.4019,93.2303 85.5,94C 80.7246,98.436 75.3913,102.103 69.5,105C 71.2415,107.873 73.5748,109.04 76.5,108.5C 77.5195,109.687 78.6861,110.687 80,111.5C 80.3333,111.167 80.6667,110.833 81,110.5C 83.2246,111.939 85.2246,113.606 87,115.5C 88.8335,114.304 90.6669,113.471 92.5,113C 91.4829,114.049 91.3162,115.216 92,116.5C 93.6236,116.57 95.4569,117.07 97.5,118C 96.4293,118.852 95.4293,119.685 94.5,120.5C 62.8333,120.5 31.1667,120.5 -0.5,120.5C -0.5,98.8333 -0.5,77.1667 -0.5,55.5C 3.00657,52.513 5.67324,53.013 7.5,57C 6.06153,59.3663 6.56153,59.8663 9,58.5C 11.4902,60.6333 12.3236,63.1333 11.5,66C 12.0104,67.8261 12.8438,67.9928 14,66.5C 14.6914,68.8912 15.6914,68.8912 17,66.5C 17.047,60.794 18.2136,55.4606 20.5,50.5 Z"/></g>
<g><path style="opacity:1" fill="#382e17" d="M 63.5,53.5 C 62.4376,54.5754 62.4376,55.5754 63.5,56.5C 64.2652,55.3881 65.2652,54.7214 66.5,54.5C 66.5,55.8333 66.5,57.1667 66.5,58.5C 64.1667,58.5 61.8333,58.5 59.5,58.5C 59.1924,56.076 59.5258,53.7427 60.5,51.5C 61.7387,51.9424 62.7387,52.6091 63.5,53.5 Z"/></g>
<g><path style="opacity:1" fill="#a78a39" d="M 69.5,52.5 C 71.3841,52.7118 72.7174,53.7118 73.5,55.5C 71.2192,56.2617 69.8859,55.2617 69.5,52.5 Z"/></g>
<g><path style="opacity:1" fill="#a08129" d="M 66.5,52.5 C 68.14,53.7901 68.64,55.4567 68,57.5C 67.7679,56.2625 67.2679,55.2625 66.5,54.5C 65.2652,54.7214 64.2652,55.3881 63.5,56.5C 62.4376,55.5754 62.4376,54.5754 63.5,53.5C 64.391,52.8902 65.391,52.5569 66.5,52.5 Z"/></g>
<g><path style="opacity:1" fill="#352e1b" d="M 81.5,55.5 C 82.1667,55.5 82.5,55.8333 82.5,56.5C 82.7352,57.0967 83.2352,57.4301 84,57.5C 84.6667,56.8333 85.3333,56.1667 86,55.5C 87.0588,55.6301 87.8921,56.1301 88.5,57C 86.6305,59.6126 84.2972,61.7793 81.5,63.5C 83.9648,66.8139 85.6315,70.1472 86.5,73.5C 88.2147,75.2147 89.8814,76.8814 91.5,78.5C 82.3754,92.5556 69.3754,98.5556 52.5,96.5C 50.064,95.129 47.3973,94.129 44.5,93.5C 41.8333,91.1667 39.1667,88.8333 36.5,86.5C 40.7693,87.3007 44.4359,89.134 47.5,92C 61.0373,94.6242 73.3707,92.1242 84.5,84.5C 84.7093,83.914 85.0426,83.414 85.5,83C 82.6353,82.8171 79.9686,82.3171 77.5,81.5C 80.3854,81.8064 83.0521,81.4731 85.5,80.5C 85.9382,80.5654 86.2716,80.3988 86.5,80C 83.5204,78.1923 80.8537,76.0256 78.5,73.5C 76.8169,69.306 74.4836,65.4727 71.5,62C 75.7575,61.0512 79.0908,58.8846 81.5,55.5 Z"/></g>
<g><path style="opacity:1" fill="#2c281b" d="M 88.5,35.5 C 91.6468,39.4643 93.9802,43.7977 95.5,48.5C 96.4069,54.1064 96.7402,59.773 96.5,65.5C 95.1652,69.8571 93.4986,74.1904 91.5,78.5C 89.8814,76.8814 88.2147,75.2147 86.5,73.5C 85.6315,70.1472 83.9648,66.8139 81.5,63.5C 84.2972,61.7793 86.6305,59.6126 88.5,57C 87.8921,56.1301 87.0588,55.6301 86,55.5C 85.3333,56.1667 84.6667,56.8333 84,57.5C 83.2352,57.4301 82.7352,57.0967 82.5,56.5C 85.2945,54.1807 87.1278,51.1807 88,47.5C 87.7719,43.3268 87.9386,39.3268 88.5,35.5 Z"/></g>
<g><path style="opacity:1" fill="#644511" d="M 40.5,41.5 C 42.6074,40.5318 44.9407,40.1984 47.5,40.5C 48.8333,40.5 50.1667,40.5 51.5,40.5C 51.5,44.8333 51.5,49.1667 51.5,53.5C 51.5,55.1667 51.5,56.8333 51.5,58.5C 51.824,65.3543 51.4907,72.021 50.5,78.5C 50.5,66.1667 50.5,53.8333 50.5,41.5C 47.1667,41.5 43.8333,41.5 40.5,41.5 Z"/></g>
<g><path style="opacity:1" fill="#eace5b" d="M 76.5,47.5 C 76.5,47.1667 76.5,46.8333 76.5,46.5C 80.648,46.8338 82.3147,49.1672 81.5,53.5C 81.5,54.1667 81.5,54.8333 81.5,55.5C 79.0908,58.8846 75.7575,61.0512 71.5,62C 74.4836,65.4727 76.8169,69.306 78.5,73.5C 77.448,73.6495 76.448,73.4828 75.5,73C 74.0599,67.7896 70.7266,64.6229 65.5,63.5C 65.5,62.8333 65.1667,62.5 64.5,62.5C 61.8411,62.0826 59.5078,61.0826 57.5,59.5C 57.8333,59.5 58.1667,59.5 58.5,59.5C 62.8461,59.6657 67.1794,59.499 71.5,59C 73.0267,57.9681 74.36,56.8014 75.5,55.5C 77.5838,53.007 77.9171,50.3404 76.5,47.5 Z"/></g>
<g><path style="opacity:1" fill="#979735" d="M 36.5,53.5 C 38.0174,53.5106 39.1841,54.1772 40,55.5C 42.949,58.9502 44.1157,62.9502 43.5,67.5C 41.4657,62.7454 39.1324,58.0788 36.5,53.5 Z"/></g>
<g><path style="opacity:1" fill="#d1a72e" d="M 57.5,59.5 C 59.5078,61.0826 61.8411,62.0826 64.5,62.5C 62.5,62.5 60.5,62.5 58.5,62.5C 58.334,67.8437 58.5006,73.1771 59,78.5C 60.7286,78.9743 61.8953,79.9743 62.5,81.5C 61.5,81.5 60.5,81.5 59.5,81.5C 57.7451,80.0382 56.4118,78.2049 55.5,76C 56.0219,75.4387 56.3552,74.772 56.5,74C 55.8148,71.2048 55.3148,68.3715 55,65.5C 54.564,62.6021 53.3974,60.2688 51.5,58.5C 51.5,56.8333 51.5,55.1667 51.5,53.5C 52.1499,53.1961 52.8165,52.8627 53.5,52.5C 54.6036,55.0499 55.937,57.3832 57.5,59.5 Z"/></g>
<g><path style="opacity:1" fill="#c2901a" d="M 51.5,58.5 C 53.3974,60.2688 54.564,62.6021 55,65.5C 55.3148,68.3715 55.8148,71.2048 56.5,74C 56.3552,74.772 56.0219,75.4387 55.5,76C 56.4118,78.2049 57.7451,80.0382 59.5,81.5C 55.0293,82.0894 51.0293,81.4228 47.5,79.5C 48.4916,79.6716 49.1583,79.3382 49.5,78.5C 49.8333,78.5 50.1667,78.5 50.5,78.5C 51.4907,72.021 51.824,65.3543 51.5,58.5 Z"/></g>
<g><path style="opacity:1" fill="#3c5305" d="M 32.5,49.5 C 32.8333,50.1667 33.1667,50.8333 33.5,51.5C 34.0169,54.5823 34.8502,57.5823 36,60.5C 36.3333,59.8333 36.6667,59.1667 37,58.5C 37.3333,61.8333 37.6667,65.1667 38,68.5C 38.6667,69.8333 39.3333,69.8333 40,68.5C 40.21,70.0581 40.71,71.3915 41.5,72.5C 40.9084,75.1272 40.5751,77.7938 40.5,80.5C 39.6618,80.1583 39.3284,79.4916 39.5,78.5C 39.8134,75.7531 39.48,73.0865 38.5,70.5C 37.7132,71.2421 37.0465,72.0754 36.5,73C 37.5171,74.0495 37.6838,75.2161 37,76.5C 36.4115,74.1367 34.9115,73.1367 32.5,73.5C 31.2972,71.6045 30.1305,69.6045 29,67.5C 28.8333,65.5 28.6667,63.5 28.5,61.5C 28.0709,56.7862 29.4043,52.7862 32.5,49.5 Z"/></g>
<g><path style="opacity:1" fill="#5e720b" d="M 31.5,52.5 C 33.619,57.6403 35.119,62.9736 36,68.5C 34.9196,66.0038 33.5862,63.6705 32,61.5C 31.502,58.5184 31.3354,55.5184 31.5,52.5 Z"/></g>
<g><path style="opacity:1" fill="#586e03" d="M 33.5,51.5 C 34.5,52.1667 35.5,52.8333 36.5,53.5C 39.1324,58.0788 41.4657,62.7454 43.5,67.5C 43.2041,69.403 42.5375,71.0697 41.5,72.5C 40.71,71.3915 40.21,70.0581 40,68.5C 39.3333,69.8333 38.6667,69.8333 38,68.5C 37.6667,65.1667 37.3333,61.8333 37,58.5C 36.6667,59.1667 36.3333,59.8333 36,60.5C 34.8502,57.5823 34.0169,54.5823 33.5,51.5 Z"/></g>
<g><path style="opacity:1" fill="#2c2718" d="M 49.5,78.5 C 49.1583,79.3382 48.4916,79.6716 47.5,79.5C 46.8333,79.5 46.5,79.8333 46.5,80.5C 45.2089,81.5417 45.2089,82.7083 46.5,84C 49.1667,84.1667 51.8333,84.3333 54.5,84.5C 57.5902,84.4783 60.2568,83.8117 62.5,82.5C 62.5,82.1667 62.5,81.8333 62.5,81.5C 61.8953,79.9743 60.7286,78.9743 59,78.5C 58.5006,73.1771 58.334,67.8437 58.5,62.5C 60.5,62.5 62.5,62.5 64.5,62.5C 65.1667,62.5 65.5,62.8333 65.5,63.5C 65.5,63.8333 65.5,64.1667 65.5,64.5C 63.6208,63.6586 61.6208,63.3253 59.5,63.5C 59.5,64.5 59.5,65.5 59.5,66.5C 61.1439,66.2865 62.6439,66.6198 64,67.5C 64.3547,72.557 65.5214,77.3903 67.5,82C 66.9136,84.2798 66.0803,86.4465 65,88.5C 64.7216,87.5842 64.2216,86.9175 63.5,86.5C 59.9975,87.9175 56.3309,88.5842 52.5,88.5C 47.7336,87.0814 43.7336,84.4147 40.5,80.5C 40.5751,77.7938 40.9084,75.1272 41.5,72.5C 42.5375,71.0697 43.2041,69.403 43.5,67.5C 44.1157,62.9502 42.949,58.9502 40,55.5C 39.1841,54.1772 38.0174,53.5106 36.5,53.5C 35.9202,51.2512 34.5869,49.5846 32.5,48.5C 37.1059,46.1242 42.1059,45.1242 47.5,45.5C 47.3284,56.5765 47.9951,67.5765 49.5,78.5 Z"/></g>
<g><path style="opacity:1" fill="#e4c54a" d="M 98.5,49.5 C 99.3924,54.4376 99.7257,59.4376 99.5,64.5C 99.1667,65.8333 98.8333,67.1667 98.5,68.5C 97.0937,68.0269 96.427,67.0269 96.5,65.5C 96.7402,59.773 96.4069,54.1064 95.5,48.5C 95.3691,47.6236 95.7025,46.9569 96.5,46.5C 97.1757,47.6016 97.8423,48.6016 98.5,49.5 Z"/></g>
<g><path style="opacity:1" fill="#967b3e" d="M 24.5,54.5 C 24.1773,60.6354 24.8439,66.6354 26.5,72.5C 26.1667,72.5 25.8333,72.5 25.5,72.5C 23.3556,66.5012 23.0223,60.5012 24.5,54.5 Z"/></g>
<g><path style="opacity:1" fill="#283606" d="M 39.5,78.5 C 38.8333,78.5 38.1667,78.5 37.5,78.5C 35.5,77.1667 33.8333,75.5 32.5,73.5C 34.9115,73.1367 36.4115,74.1367 37,76.5C 37.6838,75.2161 37.5171,74.0495 36.5,73C 37.0465,72.0754 37.7132,71.2421 38.5,70.5C 39.48,73.0865 39.8134,75.7531 39.5,78.5 Z"/></g>
<g><path style="opacity:1" fill="#e1bc37" d="M 65.5,64.5 C 65.5,64.1667 65.5,63.8333 65.5,63.5C 70.7266,64.6229 74.0599,67.7896 75.5,73C 76.448,73.4828 77.448,73.6495 78.5,73.5C 79.9573,75.6282 80.9573,77.9616 81.5,80.5C 82.8333,80.5 84.1667,80.5 85.5,80.5C 83.0521,81.4731 80.3854,81.8064 77.5,81.5C 75.8333,79.1667 73.8333,77.1667 71.5,75.5C 70.2583,71.3447 68.2583,67.678 65.5,64.5 Z"/></g>
<g><path style="opacity:1" fill="#674c1a" d="M 71.5,75.5 C 73.8333,77.1667 75.8333,79.1667 77.5,81.5C 74.5,80.5 72.5,78.5 71.5,75.5 Z"/></g>
<g><path style="opacity:1" fill="#23231a" d="M 120.5,55.5 C 120.5,77.1667 120.5,98.8333 120.5,120.5C 111.833,120.5 103.167,120.5 94.5,120.5C 95.4293,119.685 96.4293,118.852 97.5,118C 95.4569,117.07 93.6236,116.57 92,116.5C 91.3162,115.216 91.4829,114.049 92.5,113C 90.6669,113.471 88.8335,114.304 87,115.5C 85.2246,113.606 83.2246,111.939 81,110.5C 80.6667,110.833 80.3333,111.167 80,111.5C 78.6861,110.687 77.5195,109.687 76.5,108.5C 73.5748,109.04 71.2415,107.873 69.5,105C 75.3913,102.103 80.7246,98.436 85.5,94C 84.4019,93.2303 84.4019,92.397 85.5,91.5C 92.1566,85.191 96.4899,77.5243 98.5,68.5C 98.8333,67.1667 99.1667,65.8333 99.5,64.5C 100.674,63.4863 101.34,62.153 101.5,60.5C 103.067,59.3192 103.901,57.6526 104,55.5C 105.019,54.3128 106.186,53.3128 107.5,52.5C 110.317,53.2438 113.317,53.2438 116.5,52.5C 117.922,53.3982 119.255,54.3982 120.5,55.5 Z"/></g>
<g><path style="opacity:1" fill="#dcbf63" d="M 78.5,73.5 C 80.8537,76.0256 83.5204,78.1923 86.5,80C 86.2716,80.3988 85.9382,80.5654 85.5,80.5C 84.1667,80.5 82.8333,80.5 81.5,80.5C 80.9573,77.9616 79.9573,75.6282 78.5,73.5 Z"/></g>
<g><path style="opacity:1" fill="#533918" d="M 47.5,79.5 C 51.0293,81.4228 55.0293,82.0894 59.5,81.5C 60.5,81.5 61.5,81.5 62.5,81.5C 62.5,81.8333 62.5,82.1667 62.5,82.5C 56.7291,83.1128 51.3958,82.4461 46.5,80.5C 46.5,79.8333 46.8333,79.5 47.5,79.5 Z"/></g>
<g><path style="opacity:1" fill="#110f03" d="M 46.5,80.5 C 51.3958,82.4461 56.7291,83.1128 62.5,82.5C 60.2568,83.8117 57.5902,84.4783 54.5,84.5C 51.8333,84.3333 49.1667,84.1667 46.5,84C 45.2089,82.7083 45.2089,81.5417 46.5,80.5 Z"/></g>
<g><path style="opacity:1" fill="#dec47f" d="M 25.5,72.5 C 25.8333,72.5 26.1667,72.5 26.5,72.5C 28.7018,78.0258 32.0351,82.6925 36.5,86.5C 39.1667,88.8333 41.8333,91.1667 44.5,93.5C 35.0761,89.4044 28.7428,82.4044 25.5,72.5 Z"/></g>
<g><path style="opacity:1" fill="#595618" d="M 37.5,78.5 C 38.1667,78.5 38.8333,78.5 39.5,78.5C 39.3284,79.4916 39.6618,80.1583 40.5,80.5C 43.7336,84.4147 47.7336,87.0814 52.5,88.5C 54.6074,89.4682 56.9407,89.8016 59.5,89.5C 49.3048,91.7358 41.9715,88.0692 37.5,78.5 Z"/></g>
<g><path style="opacity:1" fill="#82811c" d="M 63.5,86.5 C 62.5637,87.9744 61.2303,88.9744 59.5,89.5C 56.9407,89.8016 54.6074,89.4682 52.5,88.5C 56.3309,88.5842 59.9975,87.9175 63.5,86.5 Z"/></g>
<g><path style="opacity:1" fill="#c39a35" d="M 96.5,65.5 C 96.427,67.0269 97.0937,68.0269 98.5,68.5C 96.4899,77.5243 92.1566,85.191 85.5,91.5C 79.3754,95.5411 72.7087,98.2078 65.5,99.5C 62.8333,99.5 60.1667,99.5 57.5,99.5C 55.9275,98.3127 54.2608,97.3127 52.5,96.5C 69.3754,98.5556 82.3754,92.5556 91.5,78.5C 93.4986,74.1904 95.1652,69.8571 96.5,65.5 Z"/></g>
<g><path style="opacity:1" fill="#7a5615" d="M 45.5,97.5 C 49.4616,98.3755 53.4616,99.0422 57.5,99.5C 60.1667,99.5 62.8333,99.5 65.5,99.5C 61.0189,100.648 56.3522,100.815 51.5,100C 49.1484,99.7599 47.1484,98.9265 45.5,97.5 Z"/></g>
</svg>
